<svg xmlns="http://www.w3.org/2000/svg" width="512" height="512" viewBox="0 0 512 512">
  <rect width="512" height="512" rx="128" fill="#050505"/>
  <defs>
    <linearGradient id="grad" x1="0%" y1="0%" x2="100%" y2="100%">
      <stop offset="0%" style="stop-color:#9333ea;stop-opacity:1" />
      <stop offset="100%" style="stop-color:#2563eb;stop-opacity:1" />
    </linearGradient>
  </defs>
  <!-- Scissor Box -->
  <rect x="40" y="156" width="200" height="200" rx="48" fill="url(#grad)"/>
  <g transform="translate(80, 196) scale(5)" stroke="white" stroke-width="2" fill="none" stroke-linecap="round" stroke-linejoin="round">
    <circle cx="6" cy="6" r="3"></circle><path d="M8.12 8.12 12 12"></path><path d="M20 4 8.12 15.88"></path><circle cx="6" cy="18" r="3"></circle><path d="M14.8 14.8 20 20"></path>
  </g>
  <!-- Chair Box -->
  <rect x="272" y="156" width="200" height="200" rx="48" fill="url(#grad)"/>
  <g transform="translate(312, 196) scale(5)" stroke="white" stroke-width="2" fill="none" stroke-linecap="round" stroke-linejoin="round">
    <path d="M6 3l3 12h12c0 1-1 2-2 2H9l-3-12z" />
    <path d="M8 10h10l2 5" />
    <path d="M13 17v4" />
    <path d="M11 19h2" />
    <path d="M9 22h8" />
  </g>
</svg>
